<mxfile host="app.diagrams.net" modified="2023-09-20T13:29:39.728Z" agent="Mozilla/5.0 (Macintosh; Intel Mac OS X 10_15_7) AppleWebKit/605.1.15 (KHTML, like Gecko) Version/16.5.2 Safari/605.1.15" version="21.7.5" etag="uBkyKnxpufiK_YVPIo2h" type="github">
  <diagram name="Page-1" id="gTQe1QTDvDvT0NcoV7IX">
    <mxGraphModel>
      <root>
        <mxCell id="0" />
        <mxCell id="1" parent="0" />
      </root>
    </mxGraphModel>
  </diagram>
</mxfile>
